<?xml version="1.0" encoding="UTF-8" standalone="no"?>
<svg
   xmlns:dc="http://purl.org/dc/elements/1.1/"
   xmlns:cc="http://creativecommons.org/ns#"
   xmlns:rdf="http://www.w3.org/1999/02/22-rdf-syntax-ns#"
   xmlns:svg="http://www.w3.org/2000/svg"
   xmlns="http://www.w3.org/2000/svg"
   xmlns:sodipodi="http://sodipodi.sourceforge.net/DTD/sodipodi-0.dtd"
   xmlns:inkscape="http://www.inkscape.org/namespaces/inkscape"
   width="1880"
   height="609"
   version="1.1"
   id="svg338"
   sodipodi:docname="Banner_2.svg"
   inkscape:version="0.92.1 r15371">
  <metadata
     id="metadata344">
    <rdf:RDF>
      <cc:Work
         rdf:about="">
        <dc:format>image/svg+xml</dc:format>
        <dc:type
           rdf:resource="http://purl.org/dc/dcmitype/StillImage" />
        <dc:title></dc:title>
      </cc:Work>
    </rdf:RDF>
  </metadata>
  <defs
     id="defs342">
    <filter
       id="filter5276"
       inkscape:label="Drop Shadow"
       style="color-interpolation-filters:sRGB;">
      <feFlood
         id="feFlood5266"
         result="flood"
         flood-color="rgb(0,0,0)"
         flood-opacity="0.498039" />
      <feComposite
         id="feComposite5268"
         result="composite1"
         operator="out"
         in2="SourceGraphic"
         in="flood" />
      <feGaussianBlur
         id="feGaussianBlur5270"
         result="blur"
         stdDeviation="3"
         in="composite1" />
      <feOffset
         id="feOffset5272"
         result="offset"
         dy="3"
         dx="3" />
      <feComposite
         id="feComposite5274"
         result="composite2"
         operator="in"
         in2="SourceGraphic"
         in="offset" />
    </filter>
  </defs>
  <sodipodi:namedview
     pagecolor="#ffffff"
     bordercolor="#666666"
     borderopacity="1"
     objecttolerance="10"
     gridtolerance="10"
     guidetolerance="10"
     inkscape:pageopacity="0"
     inkscape:pageshadow="2"
     inkscape:window-width="1855"
     inkscape:window-height="1056"
     id="namedview340"
     showgrid="false"
     inkscape:zoom="0.31170213"
     inkscape:cx="1402.4359"
     inkscape:cy="374.18495"
     inkscape:window-x="65"
     inkscape:window-y="24"
     inkscape:window-maximized="1"
     inkscape:current-layer="svg338" />
  <path
     d="M282,941L163,947L735,979Z"
     fill="#698c8d"
     stroke="#698c8d"
     stroke-width="1.51"
     id="path2" />
  <path
     d="M163,947L-90,971L735,979Z"
     fill="#708e8e"
     stroke="#708e8e"
     stroke-width="1.51"
     id="path4" />
  <path
     d="M156,-325L566,-321L797,-344Z"
     fill="#d6d9eb"
     stroke="#d6d9eb"
     stroke-width="1.51"
     id="path6" />
  <path
     d="M870,-341L1141,-325L1530,-340Z"
     fill="#a7c2de"
     stroke="#a7c2de"
     stroke-width="1.51"
     id="path8" />
  <path
     d="M870,-341L1530,-340L1771,-359Z"
     fill="#9dbdd1"
     stroke="#9dbdd1"
     stroke-width="1.51"
     id="path10" />
  <path
     d="M797,-344L870,-341L1771,-359Z"
     fill="#a9c4de"
     stroke="#a9c4de"
     stroke-width="1.51"
     id="path12" />
  <path
     d="M1284,853L1004,967L1812,925Z"
     fill="#1b727a"
     stroke="#1b727a"
     stroke-width="1.51"
     id="path14" />
  <path
     d="M1004,967L735,979L1974,974Z"
     fill="#236f7c"
     stroke="#236f7c"
     stroke-width="1.51"
     id="path16" />
  <path
     d="M1812,925L1004,967L1974,974Z"
     fill="#046863"
     stroke="#046863"
     stroke-width="1.51"
     id="path18" />
  <path
     d="M2127,249L2012,365L2155,439Z"
     fill="#357b85"
     stroke="#357b85"
     stroke-width="1.51"
     id="path20" />
  <path
     d="M2142,113L2127,249L2155,439Z"
     fill="#417e86"
     stroke="#417e86"
     stroke-width="1.51"
     id="path22" />
  <path
     d="M1916,771L1974,974L2198,901Z"
     fill="#015f4d"
     stroke="#015f4d"
     stroke-width="1.51"
     id="path24" />
  <path
     d="M2155,439L1964,525L2207,667Z"
     fill="#1a7076"
     stroke="#1a7076"
     stroke-width="1.51"
     id="path26" />
  <path
     d="M1916,771L2198,901L2207,667Z"
     fill="#036355"
     stroke="#036355"
     stroke-width="1.51"
     id="path28" />
  <path
     d="M2142,113L2155,439L2207,667Z"
     fill="#2c737f"
     stroke="#2c737f"
     stroke-width="1.51"
     id="path30" />
  <path
     d="M1771,-359L1883,-328L2208,-308Z"
     fill="#88aaa2"
     stroke="#88aaa2"
     stroke-width="1.51"
     id="path32" />
  <path
     d="M2004,-118L2123,-100L2208,-308Z"
     fill="#7a9893"
     stroke="#7a9893"
     stroke-width="1.51"
     id="path34" />
  <path
     d="M1883,-328L2004,-118L2208,-308Z"
     fill="#82a19b"
     stroke="#82a19b"
     stroke-width="1.51"
     id="path36" />
  <path
     d="M2142,113L2207,667L2208,-308Z"
     fill="#558286"
     stroke="#558286"
     stroke-width="1.51"
     id="path38" />
  <path
     d="M2123,-100L2142,113L2208,-308Z"
     fill="#73918f"
     stroke="#73918f"
     stroke-width="1.51"
     id="path40" />
  <path
     d="M1964,525L1916,771L2207,667Z"
     fill="#056f6a"
     stroke="#056f6a"
     stroke-width="1.51"
     id="path42" />
  <path
     d="M2004,-118L1939,52L2123,-100Z"
     fill="#749896"
     stroke="#749896"
     stroke-width="1.51"
     id="path44" />
  <path
     d="M2123,-100L1939,52L2142,113Z"
     fill="#6a9191"
     stroke="#6a9191"
     stroke-width="1.51"
     id="path46" />
  <path
     d="M2012,365L1964,525L2155,439Z"
     fill="#297985"
     stroke="#297985"
     stroke-width="1.51"
     id="path48" />
  <path
     d="M1939,52L2127,249L2142,113Z"
     fill="#5b8a8e"
     stroke="#5b8a8e"
     stroke-width="1.51"
     id="path50" />
  <path
     d="M1939,52L2012,365L2127,249Z"
     fill="#4d888e"
     stroke="#4d888e"
     stroke-width="1.51"
     id="path52" />
  <path
     d="M1139,893L1004,967L1284,853Z"
     fill="#2d7a86"
     stroke="#2d7a86"
     stroke-width="1.51"
     id="path54" />
  <path
     d="M1566,830L1284,853L1812,925Z"
     fill="#0a7370"
     stroke="#0a7370"
     stroke-width="1.51"
     id="path56" />
  <path
     d="M1753,78L1759,354L1939,52Z"
     fill="#5c959f"
     stroke="#5c959f"
     stroke-width="1.51"
     id="path58" />
  <path
     d="M1754,674L1916,771L1964,525Z"
     fill="#047773"
     stroke="#047773"
     stroke-width="1.51"
     id="path60" />
  <path
     d="M1916,771L1812,925L1974,974Z"
     fill="#016654"
     stroke="#016654"
     stroke-width="1.51"
     id="path62" />
  <path
     d="M1793,-91L1939,52L2004,-118Z"
     fill="#779f9d"
     stroke="#779f9d"
     stroke-width="1.51"
     id="path64" />
  <path
     d="M1883,-328L1793,-91L2004,-118Z"
     fill="#81a5a2"
     stroke="#81a5a2"
     stroke-width="1.51"
     id="path66" />
  <path
     d="M1939,52L1759,354L2012,365Z"
     fill="#498d95"
     stroke="#498d95"
     stroke-width="1.51"
     id="path68" />
  <path
     d="M1802,437L1964,525L2012,365Z"
     fill="#2a808c"
     stroke="#2a808c"
     stroke-width="1.51"
     id="path70" />
  <path
     d="M1759,354L1802,437L2012,365Z"
     fill="#348693"
     stroke="#348693"
     stroke-width="1.51"
     id="path72" />
  <path
     d="M1802,437L1754,674L1964,525Z"
     fill="#1c7d87"
     stroke="#1c7d87"
     stroke-width="1.51"
     id="path74" />
  <path
     d="M1793,-91L1753,78L1939,52Z"
     fill="#719ea2"
     stroke="#719ea2"
     stroke-width="1.51"
     id="path76" />
  <path
     d="M1771,-359L1793,-91L1883,-328Z"
     fill="#88acaa"
     stroke="#88acaa"
     stroke-width="1.51"
     id="path78" />
  <path
     d="M1754,674L1812,925L1916,771Z"
     fill="#047165"
     stroke="#047165"
     stroke-width="1.51"
     id="path80" />
  <path
     d="M1753,78L1493,69L1759,354Z"
     fill="#5e9aaa"
     stroke="#5e9aaa"
     stroke-width="1.51"
     id="path82" />
  <path
     d="M1771,-359L1530,-340L1793,-91Z"
     fill="#8cb0b4"
     stroke="#8cb0b4"
     stroke-width="1.51"
     id="path84" />
  <path
     d="M1530,-340L1467,-100L1793,-91Z"
     fill="#88afba"
     stroke="#88afba"
     stroke-width="1.51"
     id="path86" />
  <path
     d="M1614,568L1754,674L1802,437Z"
     fill="#19818e"
     stroke="#19818e"
     stroke-width="1.51"
     id="path88" />
  <path
     d="M1754,674L1566,830L1812,925Z"
     fill="#04736b"
     stroke="#04736b"
     stroke-width="1.51"
     id="path90" />
  <path
     d="M1493,69L1482,362L1759,354Z"
     fill="#4c98ae"
     stroke="#4c98ae"
     stroke-width="1.51"
     id="path92" />
  <path
     d="M1759,354L1614,568L1802,437Z"
     fill="#29869b"
     stroke="#29869b"
     stroke-width="1.51"
     id="path94" />
  <path
     d="M1467,-100L1493,69L1753,78Z"
     fill="#77a6b7"
     stroke="#77a6b7"
     stroke-width="1.51"
     id="path96" />
  <path
     d="M1548,769L1566,830L1754,674Z"
     fill="#047a79"
     stroke="#047a79"
     stroke-width="1.51"
     id="path98" />
  <path
     d="M1467,-100L1753,78L1793,-91Z"
     fill="#7ba6b1"
     stroke="#7ba6b1"
     stroke-width="1.51"
     id="path100" />
  <path
     d="M1482,362L1614,568L1759,354Z"
     fill="#2e8ba5"
     stroke="#2e8ba5"
     stroke-width="1.51"
     id="path102" />
  <path
     d="M1614,568L1548,769L1754,674Z"
     fill="#047e83"
     stroke="#047e83"
     stroke-width="1.51"
     id="path104" />
  <path
     d="M1387,338L1482,362L1493,69Z"
     fill="#539bb9"
     stroke="#539bb9"
     stroke-width="1.51"
     id="path106" />
  <path
     d="M1482,362L1292,492L1614,568Z"
     fill="#2d8caf"
     stroke="#2d8caf"
     stroke-width="1.51"
     id="path108" />
  <path
     d="M1292,492L1388,712L1614,568Z"
     fill="#2088a0"
     stroke="#2088a0"
     stroke-width="1.51"
     id="path110" />
  <path
     d="M1388,712L1548,769L1614,568Z"
     fill="#0f818c"
     stroke="#0f818c"
     stroke-width="1.51"
     id="path112" />
  <path
     d="M1312,120L1387,338L1493,69Z"
     fill="#67a1c1"
     stroke="#67a1c1"
     stroke-width="1.51"
     id="path114" />
  <path
     d="M1141,-325L1293,-252L1530,-340Z"
     fill="#9ebcd5"
     stroke="#9ebcd5"
     stroke-width="1.51"
     id="path116" />
  <path
     d="M1293,-252L1467,-100L1530,-340Z"
     fill="#94b5ca"
     stroke="#94b5ca"
     stroke-width="1.51"
     id="path118" />
  <path
     d="M1548,769L1388,712L1566,830Z"
     fill="#127c81"
     stroke="#127c81"
     stroke-width="1.51"
     id="path120" />
  <path
     d="M1388,712L1284,853L1566,830Z"
     fill="#1a7c84"
     stroke="#1a7c84"
     stroke-width="1.51"
     id="path122" />
  <path
     d="M1293,-252L1330,-123L1467,-100Z"
     fill="#92b3cd"
     stroke="#92b3cd"
     stroke-width="1.51"
     id="path124" />
  <path
     d="M1387,338L1292,492L1482,362Z"
     fill="#3d93b9"
     stroke="#3d93b9"
     stroke-width="1.51"
     id="path126" />
  <path
     d="M1467,-100L1330,-123L1493,69Z"
     fill="#86adc5"
     stroke="#86adc5"
     stroke-width="1.51"
     id="path128" />
  <path
     d="M1330,-123L1312,120L1493,69Z"
     fill="#7faac7"
     stroke="#7faac7"
     stroke-width="1.51"
     id="path130" />
  <path
     d="M1312,120L1125,257L1387,338Z"
     fill="#60a0c9"
     stroke="#60a0c9"
     stroke-width="1.51"
     id="path132" />
  <path
     d="M1292,492L1170,696L1388,712Z"
     fill="#2589a6"
     stroke="#2589a6"
     stroke-width="1.51"
     id="path134" />
  <path
     d="M1170,696L1284,853L1388,712Z"
     fill="#238295"
     stroke="#238295"
     stroke-width="1.51"
     id="path136" />
  <path
     d="M1125,257L1292,492L1387,338Z"
     fill="#4998c4"
     stroke="#4998c4"
     stroke-width="1.51"
     id="path138" />
  <path
     d="M1125,257L1198,505L1292,492Z"
     fill="#4697c4"
     stroke="#4697c4"
     stroke-width="1.51"
     id="path140" />
  <path
     d="M1198,505L1170,696L1292,492Z"
     fill="#328eb4"
     stroke="#328eb4"
     stroke-width="1.51"
     id="path142" />
  <path
     d="M1293,-252L1125,-167L1330,-123Z"
     fill="#9ab7d8"
     stroke="#9ab7d8"
     stroke-width="1.51"
     id="path144" />
  <path
     d="M1093,93L1312,120L1330,-123Z"
     fill="#84add1"
     stroke="#84add1"
     stroke-width="1.51"
     id="path146" />
  <path
     d="M1125,-167L1093,93L1330,-123Z"
     fill="#93b4d6"
     stroke="#93b4d6"
     stroke-width="1.51"
     id="path148" />
  <path
     d="M1093,93L1125,257L1312,120Z"
     fill="#75a8cf"
     stroke="#75a8cf"
     stroke-width="1.51"
     id="path150" />
  <path
     d="M1170,696L1139,893L1284,853Z"
     fill="#2b818f"
     stroke="#2b818f"
     stroke-width="1.51"
     id="path152" />
  <path
     d="M1141,-325L1125,-167L1293,-252Z"
     fill="#a2bddb"
     stroke="#a2bddb"
     stroke-width="1.51"
     id="path154" />
  <path
     d="M495,928L282,941L735,979Z"
     fill="#628a8c"
     stroke="#628a8c"
     stroke-width="1.51"
     id="path156" />
  <path
     d="M986,-39L1093,93L1125,-167Z"
     fill="#97b7d8"
     stroke="#97b7d8"
     stroke-width="1.51"
     id="path158" />
  <path
     d="M984,287L966,481L1125,257Z"
     fill="#5da3cc"
     stroke="#5da3cc"
     stroke-width="1.51"
     id="path160" />
  <path
     d="M966,481L1170,696L1198,505Z"
     fill="#3d92b7"
     stroke="#3d92b7"
     stroke-width="1.51"
     id="path162" />
  <path
     d="M1125,257L966,481L1198,505Z"
     fill="#4f9bc7"
     stroke="#4f9bc7"
     stroke-width="1.51"
     id="path164" />
  <path
     d="M929,723L1139,893L1170,696Z"
     fill="#358898"
     stroke="#358898"
     stroke-width="1.51"
     id="path166" />
  <path
     d="M966,481L929,723L1170,696Z"
     fill="#3d93ad"
     stroke="#3d93ad"
     stroke-width="1.51"
     id="path168" />
  <path
     d="M1093,93L984,287L1125,257Z"
     fill="#72a9cf"
     stroke="#72a9cf"
     stroke-width="1.51"
     id="path170" />
  <path
     d="M929,723L1004,967L1139,893Z"
     fill="#37838c"
     stroke="#37838c"
     stroke-width="1.51"
     id="path172" />
  <path
     d="M870,-341L1125,-167L1141,-325Z"
     fill="#abc5df"
     stroke="#abc5df"
     stroke-width="1.51"
     id="path174" />
  <path
     d="M870,-341L986,-39L1125,-167Z"
     fill="#a8c1de"
     stroke="#a8c1de"
     stroke-width="1.51"
     id="path176" />
  <path
     d="M986,-39L870,31L1093,93Z"
     fill="#93b7d7"
     stroke="#93b7d7"
     stroke-width="1.51"
     id="path178" />
  <path
     d="M870,31L984,287L1093,93Z"
     fill="#85b1d4"
     stroke="#85b1d4"
     stroke-width="1.51"
     id="path180" />
  <path
     d="M759,521L767,682L929,723Z"
     fill="#5199b0"
     stroke="#5199b0"
     stroke-width="1.51"
     id="path182" />
  <path
     d="M759,521L929,723L966,481Z"
     fill="#509ab9"
     stroke="#509ab9"
     stroke-width="1.51"
     id="path184" />
  <path
     d="M870,31L785,107L984,287Z"
     id="path186"
     stroke-width="1.51"
     stroke="#8cb5d6"
     fill="#8cb5d6" />
  <path
     d="M805,365L966,481L984,287Z"
     fill="#61a4cc"
     stroke="#61a4cc"
     stroke-width="1.51"
     id="path188" />
  <path
     d="M698,-156L870,31L986,-39Z"
     fill="#a7c0dd"
     stroke="#a7c0dd"
     stroke-width="1.51"
     id="path190" />
  <path
     d="M870,-341L698,-156L986,-39Z"
     fill="#b2c6e0"
     stroke="#b2c6e0"
     stroke-width="1.51"
     id="path192" />
  <path
     d="M929,723L735,979L1004,967Z"
     fill="#42858c"
     stroke="#42858c"
     stroke-width="1.51"
     id="path194" />
  <path
     d="M785,107L805,365L984,287Z"
     fill="#7aaed2"
     stroke="#7aaed2"
     stroke-width="1.51"
     id="path196" />
  <path
     d="M797,-344L698,-156L870,-341Z"
     fill="#becde5"
     stroke="#becde5"
     stroke-width="1.51"
     id="path198" />
  <path
     d="M767,682L735,979L929,723Z"
     fill="#4e909a"
     stroke="#4e909a"
     stroke-width="1.51"
     id="path200" />
  <path
     d="M805,365L759,521L966,481Z"
     fill="#5fa1ca"
     stroke="#5fa1ca"
     stroke-width="1.51"
     id="path202" />
  <path
     d="M698,-156L785,107L870,31Z"
     fill="#a8bfdd"
     stroke="#a8bfdd"
     stroke-width="1.51"
     id="path204" />
  <path
     d="M495,928L735,979L767,682Z"
     fill="#5a8f93"
     stroke="#5a8f93"
     stroke-width="1.51"
     id="path206" />
  <path
     d="M498,144L599,337L785,107Z"
     fill="#9ab9d8"
     stroke="#9ab9d8"
     stroke-width="1.51"
     id="path208" />
  <path
     d="M698,-156L535,-127L785,107Z"
     fill="#b7c5e0"
     stroke="#b7c5e0"
     stroke-width="1.51"
     id="path210" />
  <path
     d="M535,-127L498,144L785,107Z"
     fill="#b1c2de"
     stroke="#b1c2de"
     stroke-width="1.51"
     id="path212" />
  <path
     d="M566,-321L698,-156L797,-344Z"
     fill="#c6d0e6"
     stroke="#c6d0e6"
     stroke-width="1.51"
     id="path214" />
  <path
     d="M785,107L599,337L805,365Z"
     fill="#83b2d4"
     stroke="#83b2d4"
     stroke-width="1.51"
     id="path216" />
  <path
     d="M599,337L759,521L805,365Z"
     fill="#73a8ce"
     stroke="#73a8ce"
     stroke-width="1.51"
     id="path218" />
  <path
     d="M599,337L569,516L759,521Z"
     fill="#75a7ce"
     stroke="#75a7ce"
     stroke-width="1.51"
     id="path220" />
  <path
     d="M490,638L495,928L767,682Z"
     fill="#669aa4"
     stroke="#669aa4"
     stroke-width="1.51"
     id="path222" />
  <path
     d="M759,521L569,516L767,682Z"
     fill="#65a0bd"
     stroke="#65a0bd"
     stroke-width="1.51"
     id="path224" />
  <path
     d="M569,516L490,638L767,682Z"
     fill="#6ba1b8"
     stroke="#6ba1b8"
     stroke-width="1.51"
     id="path226" />
  <path
     d="M490,638L414,705L495,928Z"
     fill="#6d9da5"
     stroke="#6d9da5"
     stroke-width="1.51"
     id="path228" />
  <path
     d="M156,-325L376,-257L566,-321Z"
     fill="#dedcec"
     stroke="#dedcec"
     stroke-width="1.51"
     id="path230" />
  <path
     d="M566,-321L535,-127L698,-156Z"
     fill="#c9cfe6"
     stroke="#c9cfe6"
     stroke-width="1.51"
     id="path232" />
  <path
     d="M292,-25L498,144L535,-127Z"
     fill="#c2cae2"
     stroke="#c2cae2"
     stroke-width="1.51"
     id="path234" />
  <path
     d="M376,-257L535,-127L566,-321Z"
     fill="#d2d4e8"
     stroke="#d2d4e8"
     stroke-width="1.51"
     id="path236" />
  <path
     d="M357,251L301,534L569,516Z"
     fill="#89b0d3"
     stroke="#89b0d3"
     stroke-width="1.51"
     id="path238" />
  <path
     d="M357,251L569,516L599,337Z"
     fill="#89b2d5"
     stroke="#89b2d5"
     stroke-width="1.51"
     id="path240" />
  <path
     d="M498,144L357,251L599,337Z"
     fill="#9cbad9"
     stroke="#9cbad9"
     stroke-width="1.51"
     id="path242" />
  <path
     d="M301,534L490,638L569,516Z"
     fill="#7aa8c3"
     stroke="#7aa8c3"
     stroke-width="1.51"
     id="path244" />
  <path
     d="M292,-25L321,122L498,144Z"
     fill="#bcc7e1"
     stroke="#bcc7e1"
     stroke-width="1.51"
     id="path246" />
  <path
     d="M376,-257L292,-25L535,-127Z"
     fill="#d1d2e7"
     stroke="#d1d2e7"
     stroke-width="1.51"
     id="path248" />
  <path
     d="M414,705L282,941L495,928Z"
     fill="#6e9897"
     stroke="#6e9897"
     stroke-width="1.51"
     id="path250" />
  <path
     d="M321,122L357,251L498,144Z"
     fill="#aec1de"
     stroke="#aec1de"
     stroke-width="1.51"
     id="path252" />
  <path
     d="M301,534L414,705L490,638Z"
     fill="#79a7ba"
     stroke="#79a7ba"
     stroke-width="1.51"
     id="path254" />
  <path
     d="M130,330L301,534L357,251Z"
     fill="#99b8d8"
     stroke="#99b8d8"
     stroke-width="1.51"
     id="path256" />
  <path
     d="M301,534L159,636L414,705Z"
     fill="#80aabc"
     stroke="#80aabc"
     stroke-width="1.51"
     id="path258" />
  <path
     d="M159,636L282,941L414,705Z"
     fill="#79a2a7"
     stroke="#79a2a7"
     stroke-width="1.51"
     id="path260" />
  <path
     d="M159,636L163,947L282,941Z"
     fill="#799f9d"
     stroke="#799f9d"
     stroke-width="1.51"
     id="path262" />
  <path
     d="M156,-325L292,-25L376,-257Z"
     fill="#ddd9ea"
     stroke="#ddd9ea"
     stroke-width="1.51"
     id="path264" />
  <path
     d="M156,-325L66,-80L292,-25Z"
     fill="#ddd8eb"
     stroke="#ddd8eb"
     stroke-width="1.51"
     id="path266" />
  <path
     d="M321,122L131,165L357,251Z"
     fill="#b4c4e0"
     stroke="#b4c4e0"
     stroke-width="1.51"
     id="path268" />
  <path
     d="M131,165L130,330L357,251Z"
     fill="#acc2de"
     stroke="#acc2de"
     stroke-width="1.51"
     id="path270" />
  <path
     d="M130,330L78,530L301,534Z"
     fill="#94b4d6"
     stroke="#94b4d6"
     stroke-width="1.51"
     id="path272" />
  <path
     d="M292,-25L131,165L321,122Z"
     fill="#c2cae3"
     stroke="#c2cae3"
     stroke-width="1.51"
     id="path274" />
  <path
     d="M66,-80L131,165L292,-25Z"
     fill="#ced0e6"
     stroke="#ced0e6"
     stroke-width="1.51"
     id="path276" />
  <path
     d="M78,530L159,636L301,534Z"
     fill="#8bb0c7"
     stroke="#8bb0c7"
     stroke-width="1.51"
     id="path278" />
  <path
     d="M66,-80L-81,141L131,165Z"
     fill="#cdd0e6"
     stroke="#cdd0e6"
     stroke-width="1.51"
     id="path280" />
  <path
     d="M-299,-302L10,-228L156,-325Z"
     fill="#f0e6f2"
     stroke="#f0e6f2"
     stroke-width="1.51"
     id="path282" />
  <path
     d="M10,-228L66,-80L156,-325Z"
     fill="#e6deee"
     stroke="#e6deee"
     stroke-width="1.51"
     id="path284" />
  <path
     d="M159,636L-62,695L163,947Z"
     fill="#82a8aa"
     stroke="#82a8aa"
     stroke-width="1.51"
     id="path286" />
  <path
     d="M-62,695L-90,971L163,947Z"
     fill="#80a19c"
     stroke="#80a19c"
     stroke-width="1.51"
     id="path288" />
  <path
     d="M-12,528L78,530L130,330Z"
     fill="#99b7d7"
     stroke="#99b7d7"
     stroke-width="1.51"
     id="path290" />
  <path
     d="M78,530L-62,695L159,636Z"
     fill="#8bb0c0"
     stroke="#8bb0c0"
     stroke-width="1.51"
     id="path292" />
  <path
     d="M-81,141L130,330L131,165Z"
     fill="#b8c8e1"
     stroke="#b8c8e1"
     stroke-width="1.51"
     id="path294" />
  <path
     d="M-12,528L-62,695L78,530Z"
     fill="#91b3c6"
     stroke="#91b3c6"
     stroke-width="1.51"
     id="path296" />
  <path
     d="M-114,331L-12,528L130,330Z"
     fill="#a3bedb"
     stroke="#a3bedb"
     stroke-width="1.51"
     id="path298" />
  <path
     d="M-81,141L-114,331L130,330Z"
     fill="#b3c7e1"
     stroke="#b3c7e1"
     stroke-width="1.51"
     id="path300" />
  <path
     d="M10,-228L-85,-163L66,-80Z"
     fill="#e6deed"
     stroke="#e6deed"
     stroke-width="1.51"
     id="path302" />
  <path
     d="M-85,-163L-81,141L66,-80Z"
     fill="#ddd9ea"
     stroke="#ddd9ea"
     stroke-width="1.51"
     id="path304" />
  <path
     d="M-266,742L-90,971L-62,695Z"
     fill="#88aba7"
     stroke="#88aba7"
     stroke-width="1.51"
     id="path306" />
  <path
     d="M-299,-302L-85,-163L10,-228Z"
     fill="#efe5f2"
     stroke="#efe5f2"
     stroke-width="1.51"
     id="path308" />
  <path
     d="M-85,-163L-296,-118L-81,141Z"
     fill="#e1dded"
     stroke="#e1dded"
     stroke-width="1.51"
     id="path310" />
  <path
     d="M-274,567L-62,695L-12,528Z"
     fill="#94b6c7"
     stroke="#94b6c7"
     stroke-width="1.51"
     id="path312" />
  <path
     d="M-114,331L-274,567L-12,528Z"
     fill="#9fbcda"
     stroke="#9fbcda"
     stroke-width="1.51"
     id="path314" />
  <path
     d="M-266,742L-300,910L-90,971Z"
     fill="#86a69f"
     stroke="#86a69f"
     stroke-width="1.51"
     id="path316" />
  <path
     d="M-284,298L-114,331L-81,141Z"
     fill="#b9cce3"
     stroke="#b9cce3"
     stroke-width="1.51"
     id="path318" />
  <path
     d="M-300,164L-284,298L-81,141Z"
     fill="#c4d1e6"
     stroke="#c4d1e6"
     stroke-width="1.51"
     id="path320" />
  <path
     d="M-296,-118L-300,164L-81,141Z"
     fill="#d7d9ea"
     stroke="#d7d9ea"
     stroke-width="1.51"
     id="path322" />
  <path
     d="M-274,567L-266,742L-62,695Z"
     fill="#90b5bc"
     stroke="#90b5bc"
     stroke-width="1.51"
     id="path324" />
  <path
     d="M-284,298L-274,567L-114,331Z"
     fill="#aac4df"
     stroke="#aac4df"
     stroke-width="1.51"
     id="path326" />
  <path
     d="M-299,-302L-296,-118L-85,-163Z"
     fill="#efe6f3"
     stroke="#efe6f3"
     stroke-width="1.51"
     id="path328" />
  <path
     d="M-274,567L-300,910L-266,742Z"
     fill="#8fb4b3"
     stroke="#8fb4b3"
     stroke-width="1.51"
     id="path330" />
  <path
     d="M-284,298L-300,164L-274,567Z"
     fill="#b1cae2"
     stroke="#b1cae2"
     stroke-width="1.51"
     id="path332" />
  <path
     d="M-300,164L-300,910L-274,567Z"
     fill="#9dbdd2"
     stroke="#9dbdd2"
     stroke-width="1.51"
     id="path334" />
  <path
     d="M-299,-302L-300,164L-296,-118Z"
     fill="#e8e4f0"
     stroke="#e8e4f0"
     stroke-width="1.51"
     id="path336" />
  <g
     transform="matrix(7.5590481,0,0,7.5590405,189.99994,-1190.5365)"
     id="layer1"
     inkscape:label="Layer 1">
    <path
       transform="matrix(0.98745876,0,0,0.98745876,0.58860458,2.5527602)"
       inkscape:connector-curvature="0"
       id="path3918"
       d="m 33.120656,209.52336 -16.97024,-16.97108 3.54919,-3.54919 3.5492,-3.5492 15.4147,15.4138 15.41471,15.41379 v -23.67995 -23.67995 h 47.896104 47.89611 l 16.87247,16.87332 c 9.27987,9.28032 16.87248,16.96158 16.87248,17.06948 0,0.25406 -6.653,6.90226 -6.90725,6.90226 -0.10612,0 -7.06345,-6.87094 -15.46074,-15.26876 l -15.26781,-15.26875 -0.0973,23.58364 -0.0973,23.58364 -47.847094,0.049 -47.84709,0.049 z M 135.76832,197.70762 V 179.0356 H 99.980266 64.192226 v 18.67202 18.67202 h 35.78804 35.788054 z"
       style="fill:#000000;stroke-width:0.19450025;filter:url(#filter5276)" />
  </g>
</svg>
